<mxfile host="app.diagrams.net" modified="2022-04-09T15:18:48.744Z" agent="5.0 (Macintosh; Intel Mac OS X 10_15_7) AppleWebKit/537.36 (KHTML, like Gecko) Chrome/100.0.4896.75 Safari/537.36" etag="8bcAyiK16NXpVvewAYot" version="17.4.0" type="github">
  <diagram id="3228e29e-7158-1315-38df-8450db1d8a1d" name="Page-1">
    <mxGraphModel dx="1298" dy="234" grid="0" gridSize="10" guides="1" tooltips="1" connect="1" arrows="1" fold="1" page="1" pageScale="1" pageWidth="530" pageHeight="470" background="#EFF1F3" math="0" shadow="0">
      <root>
        <mxCell id="0" />
        <mxCell id="1" parent="0" />
        <mxCell id="OGBjxk_xHfaE1EplLFuK-23" value="begin;" style="rounded=0;whiteSpace=wrap;html=1;fillColor=#CCCCCC;gradientColor=none;fontSize=24;" parent="1" vertex="1">
          <mxGeometry x="150" y="571" width="380" height="60" as="geometry" />
        </mxCell>
        <mxCell id="OGBjxk_xHfaE1EplLFuK-29" value="&lt;font color=&quot;#ffffff&quot; style=&quot;font-size: 24px;&quot;&gt;线程1&lt;/font&gt;" style="rounded=0;whiteSpace=wrap;html=1;fillColor=#535E80;gradientColor=none;fontSize=24;" parent="1" vertex="1">
          <mxGeometry x="150" y="511" width="380" height="60" as="geometry" />
        </mxCell>
        <mxCell id="E5Fr-yn8FIVRKY9gDkfl-8" value="&lt;font color=&quot;#ffffff&quot; style=&quot;font-size: 24px;&quot;&gt;线程2&lt;/font&gt;" style="rounded=0;whiteSpace=wrap;html=1;fillColor=#535E80;gradientColor=none;fontSize=24;" parent="1" vertex="1">
          <mxGeometry x="530" y="511" width="380" height="60" as="geometry" />
        </mxCell>
        <mxCell id="E5Fr-yn8FIVRKY9gDkfl-9" value="begin;" style="rounded=0;whiteSpace=wrap;html=1;fillColor=#CCCCCC;gradientColor=none;fontSize=24;" parent="1" vertex="1">
          <mxGeometry x="530" y="571" width="380" height="60" as="geometry" />
        </mxCell>
        <mxCell id="E5Fr-yn8FIVRKY9gDkfl-10" value="&lt;font style=&quot;font-size: 19px&quot;&gt;select user where phone_no=2 for update;&amp;nbsp;&lt;/font&gt;" style="rounded=0;whiteSpace=wrap;html=1;fillColor=#F8F8F8;gradientColor=none;fontSize=24;" parent="1" vertex="1">
          <mxGeometry x="150" y="631" width="380" height="60" as="geometry" />
        </mxCell>
        <mxCell id="E5Fr-yn8FIVRKY9gDkfl-11" value="" style="rounded=0;whiteSpace=wrap;html=1;fillColor=#F8F8F8;gradientColor=none;fontSize=24;" parent="1" vertex="1">
          <mxGeometry x="530" y="631" width="380" height="60" as="geometry" />
        </mxCell>
        <mxCell id="E5Fr-yn8FIVRKY9gDkfl-12" value="" style="rounded=0;whiteSpace=wrap;html=1;fillColor=#CCCCCC;gradientColor=none;fontSize=24;" parent="1" vertex="1">
          <mxGeometry x="150" y="691" width="380" height="60" as="geometry" />
        </mxCell>
        <mxCell id="E5Fr-yn8FIVRKY9gDkfl-13" value="&lt;font style=&quot;font-size: 19px&quot;&gt;select user where phone_no=2 for update;&amp;nbsp;&lt;/font&gt;" style="rounded=0;whiteSpace=wrap;html=1;fillColor=#CCCCCC;gradientColor=none;fontSize=24;" parent="1" vertex="1">
          <mxGeometry x="530" y="691" width="380" height="60" as="geometry" />
        </mxCell>
        <mxCell id="E5Fr-yn8FIVRKY9gDkfl-14" value="&lt;font style=&quot;font-size: 20px&quot;&gt;insert user(phone_no=2);&lt;br&gt;阻塞了&lt;/font&gt;" style="rounded=0;whiteSpace=wrap;html=1;fillColor=#F8F8F8;gradientColor=none;fontSize=24;" parent="1" vertex="1">
          <mxGeometry x="150" y="751" width="380" height="60" as="geometry" />
        </mxCell>
        <mxCell id="E5Fr-yn8FIVRKY9gDkfl-15" value="" style="rounded=0;whiteSpace=wrap;html=1;fillColor=#F8F8F8;gradientColor=none;fontSize=24;" parent="1" vertex="1">
          <mxGeometry x="530" y="751" width="380" height="60" as="geometry" />
        </mxCell>
        <mxCell id="E5Fr-yn8FIVRKY9gDkfl-16" value="" style="rounded=0;whiteSpace=wrap;html=1;fillColor=#CCCCCC;gradientColor=none;fontSize=24;" parent="1" vertex="1">
          <mxGeometry x="150" y="811" width="380" height="60" as="geometry" />
        </mxCell>
        <mxCell id="E5Fr-yn8FIVRKY9gDkfl-17" value="&lt;font style=&quot;font-size: 20px&quot;&gt;&lt;span&gt;insert user(phone_no=2);&lt;/span&gt;&lt;br&gt;&lt;span&gt;报错: 死锁了&lt;/span&gt;&lt;/font&gt;" style="rounded=0;whiteSpace=wrap;html=1;fillColor=#CCCCCC;gradientColor=none;fontSize=24;" parent="1" vertex="1">
          <mxGeometry x="530" y="811" width="380" height="60" as="geometry" />
        </mxCell>
        <mxCell id="o99k7smHVPs2LoiXMWNT-3" value="&lt;font color=&quot;#ea6b66&quot; style=&quot;font-size: 16px&quot;&gt;ps: 以上sql都是伪代码&lt;/font&gt;" style="text;html=1;strokeColor=none;fillColor=none;align=left;verticalAlign=middle;whiteSpace=wrap;rounded=0;fontSize=20;" parent="1" vertex="1">
          <mxGeometry x="150" y="877" width="211" height="21" as="geometry" />
        </mxCell>
      </root>
    </mxGraphModel>
  </diagram>
</mxfile>
